<svg width="286" height="245" viewBox="0 0 286 245" fill="none" xmlns="http://www.w3.org/2000/svg">
<path d="M257.792 168.198C251.033 165.145 250.005 157.799 247.213 153.979C244.422 150.159 237.663 147.807 237.663 147.807C237.663 147.807 244.128 142.812 254.412 143.987C259.248 144.54 262.88 146.716 265.847 149.081C264.321 144.655 265.87 142.105 263.228 137.896C260.142 132.979 254.119 130.324 250.74 122.159C247.36 113.995 250.74 106.668 250.74 106.668C250.74 106.668 251.768 109.607 255.882 112.546C259.559 115.173 269.925 115.575 276.072 123.5C272.894 78.7803 241.805 54.3412 220.292 41.5931C201.814 30.6433 189.884 7.79021 139.961 11.0952C90.0387 14.4072 78.9239 46.434 66.5552 70.6785C59.7072 84.1 44.2258 87.0696 31.1685 96.3041C40.8333 93.7755 46.9618 98.4391 54.2423 99.9099C62.968 101.673 64.3395 95.5208 72.1751 95.5604C80.0112 95.6001 82.9501 98.3432 82.9501 98.3432C82.9501 98.3432 75.1139 97.1675 72.5674 103.828C70.0202 110.488 66.8861 112.99 59.0499 111.935C51.2138 110.88 48.9453 111.45 44.7903 115.182C40.6353 118.913 31.0358 116.17 25.5508 117.541C22.3008 118.353 17.8828 124.117 14.8213 128.679C17.2948 126.677 20.681 124.465 25.2441 122.43C37.9778 116.748 54.2423 127.14 54.2423 127.14C54.2423 127.14 41.4188 130.079 33.9746 135.172C26.5303 140.266 21.2408 135.368 16.1473 137.132C13.5961 138.014 11.5368 138.91 10.1161 139.583C10.1151 139.603 10.113 139.622 10.1118 139.642C9.09033 155.48 15.0758 169.543 25.2441 181.597C50.1403 211.107 100.111 228.592 133.749 230.683C168.93 232.863 230.673 219.795 259.992 180.849C262.587 177.404 264.924 173.753 266.969 169.896C264.037 169.879 260.663 169.494 257.792 168.198Z" fill="#9DA6DB"/>
<path d="M130.7 76.2536C130.7 86.4552 122.43 94.7246 112.229 94.7246C102.028 94.7246 93.7578 86.4552 93.7578 76.2536C93.7578 66.0526 102.028 57.7832 112.229 57.7832C122.43 57.7832 130.7 66.0526 130.7 76.2536Z" fill="#707AC5"/>
<path d="M246.212 57.7833C246.212 61.487 243.209 64.4893 239.506 64.4893C235.803 64.4893 232.8 61.487 232.8 57.7833C232.8 54.0797 235.803 51.0774 239.506 51.0774C243.209 51.0774 246.212 54.0797 246.212 57.7833Z" fill="#707AC5"/>
<path d="M259.992 180.849C230.673 219.795 168.93 232.863 133.749 230.683C100.111 228.592 50.1404 211.107 25.2441 181.597C34.7269 171.086 58.9713 149.797 103.711 143.811C163.856 135.761 205.778 183.517 251.229 180.994C254.288 180.822 257.208 180.781 259.992 180.849Z" fill="#707AC5"/>
<path d="M65.0247 56.7135C70.608 39.964 57.3843 47.7016 52.3891 58.3781C47.3935 69.0552 37.9902 70.229 37.9902 76.2533C37.9902 82.2789 59.4413 73.4629 65.0247 56.7135Z" stroke="#707AC5" stroke-width="1.33333" stroke-miterlimit="10"/>
<path d="M218.121 35.6968C218.121 35.6968 202.547 22.4789 196.229 18.2184C189.911 13.9579 192.703 8.22733 207.175 14.8392C221.648 21.451 227.818 34.2177 225.908 36.8705C223.998 39.5227 218.121 35.6968 218.121 35.6968Z" stroke="#707AC5" stroke-width="1.33333" stroke-miterlimit="10"/>
<path d="M73.594 75.25C73.594 75.8043 73.1447 76.2529 72.5904 76.2529C72.0362 76.2529 71.5869 75.8043 71.5869 75.25C71.5869 74.6958 72.0362 74.2465 72.5904 74.2465C73.1447 74.2465 73.594 74.6958 73.594 75.25Z" fill="#4D5EB4"/>
<path d="M82.0178 77.1469C82.0178 77.7011 81.5685 78.1504 81.0143 78.1504C80.46 78.1504 80.0107 77.7011 80.0107 77.1469C80.0107 76.5926 80.46 76.1434 81.0143 76.1434C81.5685 76.1434 82.0178 76.5926 82.0178 77.1469Z" fill="#4D5EB4"/>
<path d="M110.17 47.1684C110.17 47.7226 109.721 48.1719 109.167 48.1719C108.612 48.1719 108.163 47.7226 108.163 47.1684C108.163 46.6141 108.612 46.1648 109.167 46.1648C109.721 46.1648 110.17 46.6141 110.17 47.1684Z" fill="#4D5EB4"/>
<path d="M241.513 136.147C241.513 136.702 241.063 137.15 240.508 137.15C239.954 137.15 239.505 136.702 239.505 136.147C239.505 135.593 239.954 135.143 240.508 135.143C241.063 135.143 241.513 135.593 241.513 136.147Z" fill="#4D5EB4"/>
<path d="M244.929 133.429C244.929 133.984 244.481 134.433 243.926 134.433C243.372 134.433 242.923 133.984 242.923 133.429C242.923 132.875 243.372 132.426 243.926 132.426C244.481 132.426 244.929 132.875 244.929 133.429Z" fill="#4D5EB4"/>
<path d="M80.0113 71.9944C80.0113 72.8865 79.2881 73.6104 78.3953 73.6104C77.5025 73.6104 76.7793 72.8865 76.7793 71.9944C76.7793 71.1016 77.5025 70.3777 78.3953 70.3777C79.2881 70.3777 80.0113 71.1016 80.0113 71.9944Z" fill="#4D5EB4"/>
<path d="M250.494 82.9455C250.494 83.8383 249.771 84.5615 248.878 84.5615C247.985 84.5615 247.262 83.8383 247.262 82.9455C247.262 82.0527 247.985 81.3289 248.878 81.3289C249.771 81.3289 250.494 82.0527 250.494 82.9455Z" fill="#4D5EB4"/>
<path d="M76.779 131.544C76.779 132.701 75.8414 133.639 74.6849 133.639C73.5284 133.639 72.5908 132.701 72.5908 131.544C72.5908 130.387 73.5284 129.451 74.6849 129.451C75.8414 129.451 76.779 130.387 76.779 131.544Z" stroke="white" stroke-width="1.33333" stroke-miterlimit="10"/>
<path d="M195.138 42.2428C195.138 43.3993 194.2 44.3369 193.044 44.3369C191.888 44.3369 190.95 43.3993 190.95 42.2428C190.95 41.087 191.888 40.1494 193.044 40.1494C194.2 40.1494 195.138 41.087 195.138 42.2428Z" stroke="white" stroke-width="1.33333" stroke-miterlimit="10"/>
<path d="M96.977 35.5432C96.977 39.2303 93.9882 42.2197 90.3005 42.2197C86.6128 42.2197 83.624 39.2303 83.624 35.5432C83.624 31.8556 86.6128 28.8661 90.3005 28.8661C93.9882 28.8661 96.977 31.8556 96.977 35.5432Z" stroke="white" stroke-width="1.33333" stroke-miterlimit="10"/>
<path d="M284.885 93.0928C284.885 100.649 278.761 106.773 271.205 106.773C263.649 106.773 257.523 100.649 257.523 93.0928C257.523 85.5376 263.649 79.4122 271.205 79.4122C278.761 79.4122 284.885 85.5376 284.885 93.0928Z" stroke="white" stroke-width="1.33333" stroke-miterlimit="10"/>
<path d="M28.3612 159.66C28.3612 167.215 22.2362 173.341 14.6804 173.341C7.12499 173.341 1 167.215 1 159.66C1 152.104 7.12499 145.98 14.6804 145.98C22.2362 145.98 28.3612 152.104 28.3612 159.66Z" stroke="white" stroke-width="1.33333" stroke-miterlimit="10"/>
<path d="M118.396 20.4408C118.396 20.4408 115.515 21.9365 115.378 28.2475C115.243 34.5585 121.289 37.4827 125.1 37.4149L124.766 36.4306C124.766 36.4306 118.274 35.715 116.588 30.2059C114.902 24.6968 118.575 20.956 118.575 20.956L118.396 20.4408Z" fill="#35181A"/>
<path d="M223.378 130.571C223.378 130.571 222.058 140.546 204.562 144.355C187.065 148.163 169.019 138.188 169.019 138.188L171.963 137.896C171.963 137.896 182.167 143.81 194.41 143.084C206.652 142.359 213.586 134.923 213.586 134.923L223.378 130.571Z" fill="#35181A"/>
<path d="M226.059 81.3285C226.059 81.3285 223.973 75.253 215.993 68.9957C208.013 62.7384 201.665 59.2927 201.665 59.2927C226.512 67.0917 226.784 81.3285 226.784 81.3285H226.059ZM227.691 82.3263C228.779 69.9935 211.73 57.2971 191.417 54.0287C171.104 50.7595 172.571 29.0943 172.571 29.0943L131.988 52.4459C131.988 52.4459 130.116 71.8072 116.589 82.6891C103.062 93.5711 100.734 119.325 107.081 129.481C113.43 139.639 124.674 140.364 142.176 139.275C159.678 138.187 167.791 139.096 187.246 140.727C206.701 142.358 220.573 146.779 232.388 125.22C244.203 103.661 227.691 82.3263 227.691 82.3263Z" fill="#35181A"/>
<path d="M118 71.3355C118 71.3355 112.25 76.522 108.169 87.4046C104.089 98.2865 95.4736 132.021 95.4736 132.021L109.4 140.705L122.86 103.909L118 71.3355Z" fill="#DD5C55"/>
<path d="M173.489 123.652C171.37 129.919 171.891 136.776 174.949 142.645L175.697 145.874V145.881L177.747 154.706C163.719 166.882 144.232 170.99 132.247 168.343C120.254 165.696 117.203 155.885 117.203 155.885L119.055 142.919L115.88 114.074C115.88 114.074 113.398 110.282 112.343 101.553C111.28 92.8178 117.999 71.3362 117.999 71.3362L139.83 62.6086L155.751 61.2505L182.307 71.3362L185.742 79.9417C185.618 84.7001 182.114 96.9388 178.453 108.506C176.718 113.998 174.949 119.339 173.489 123.652Z" fill="#FBCDB7"/>
<path d="M155.902 62.6695C153.408 67.2135 144.503 72.9179 140.906 71.6705C137.31 70.4231 140.224 64.0084 140.224 64.0084C140.257 63.0977 140.291 62.2574 140.316 61.4843C140.482 56.354 140.449 54.1876 140.449 54.1876L155.902 43.9604C155.541 45.8267 155.362 47.9598 155.3 50.1051C155.112 56.3457 155.902 62.6695 155.902 62.6695Z" fill="#DD5C55"/>
<path d="M155.902 43.9603C155.541 45.8265 155.362 47.9596 155.3 50.1049C153.528 52.7616 150.577 56.7449 147.508 58.9273C144.34 61.1852 141.746 61.5257 140.315 61.4841C140.482 56.3539 140.449 54.1875 140.449 54.1875L155.902 43.9603Z" fill="#C64645"/>
<path d="M123.653 38.5264C123.653 38.5264 124.188 51.1772 133.097 56.879C142.006 62.5808 154.478 50.6428 156.617 44.0502C158.755 37.4575 158.042 23.2028 158.042 23.2028C158.042 23.2028 146.282 15.3628 137.373 15.3628C128.464 15.3628 123.653 19.8172 123.653 19.8172C123.653 19.8172 123.653 31.9337 123.653 38.5264Z" fill="#DD5C55"/>
<path d="M133.807 15.6121C133.807 15.6121 133.542 20.2629 142.095 25.6978C150.648 31.1321 155.285 32.2457 155.285 32.2457L157.096 42.2367C157.096 42.2367 155.853 45.3721 155.504 46.5119C155.124 47.7561 155.273 51.7119 155.273 51.7119C155.273 51.7119 162.497 50.6405 164.991 43.9602C164.991 43.9602 172.386 38.4377 172.653 28.4594C172.92 18.4812 167.753 15.3631 167.753 15.3631C167.753 15.3631 166.423 3.42455 153.234 1.37591C140.046 -0.67337 129.533 6.72119 129.533 6.72119C129.533 6.72119 123.119 5.83032 119.644 10.3743C116.169 14.9177 118.397 20.4409 118.397 20.4409C118.397 20.4409 115.368 23.381 117.149 28.1919C118.931 33.0028 123.653 33.6268 123.653 33.6268C123.653 33.6268 124.098 25.4303 126.504 21.3324C128.909 17.2338 133.807 15.6121 133.807 15.6121Z" fill="#35181A"/>
<path d="M155.904 33.7158C155.904 33.7158 157.597 29.529 161.072 29.0829C164.546 28.6381 164.814 34.7853 162.408 38.8832C160.002 42.9811 156.617 42.1798 156.617 42.1798L155.904 33.7158Z" fill="#DD5C55"/>
<path d="M154.211 29.0603C154.211 29.0603 156.528 36.0318 155.191 41.5557C155.191 41.5557 155.566 41.1851 156.057 40.4696C157.175 38.8408 157.641 32.6469 158.142 30.5234L154.211 29.0603Z" fill="#35181A"/>
<path d="M129.355 7.34473C129.355 7.34473 132.265 3.12842 137.789 1.40554C143.313 -0.3167 147.945 1.40554 147.945 1.40554L148.837 1.34601C148.837 1.34601 143.669 -1.13526 137.848 0.640102C132.028 2.41546 127.989 6.98888 127.989 6.98888L129.355 7.34473Z" fill="#35181A"/>
<path d="M167.754 15.3626C167.754 15.3626 170.832 15.9566 172.663 19.2826C174.495 22.6087 172.604 25.9854 172.604 25.9854L172.297 25.5783C172.297 25.5783 173.771 22.7124 171.941 19.5796C170.111 16.4468 167.754 16.61 167.754 16.61V15.3626Z" fill="#35181A"/>
<path d="M124.767 31.5082C124.767 31.5082 125.136 30.6653 127.771 30.7178C130.407 30.7703 131.988 32.2461 131.988 32.2461C131.988 32.2461 130.776 29.9799 128.377 29.6637C125.979 29.3469 124.82 31.1395 124.767 31.5082Z" fill="#35181A"/>
<path d="M133.807 15.6124C133.807 15.6124 133.394 20.1743 136.066 23.8569C138.739 27.5395 146.639 27.5394 146.639 27.5394L146.955 28.2479C146.955 28.2479 139.155 28.3113 136.007 25.5196C132.859 22.7286 132.503 18.0598 133.097 15.6124H133.807Z" fill="#35181A"/>
<path d="M139.109 31.7992C139.109 31.7992 139.536 30.8258 142.579 30.8866C145.623 30.9474 147.449 32.6523 147.449 32.6523C147.449 32.6523 146.05 30.0341 143.28 29.6687C140.51 29.3039 139.17 31.3736 139.109 31.7992Z" fill="#35181A"/>
<path d="M131.988 43.7828C131.988 43.7828 132.39 44.1841 133.904 44.6289C135.419 45.075 136.487 44.6289 136.487 44.6289C136.487 44.6289 136.031 43.7828 134.856 43.6049C133.681 43.4263 131.988 43.7828 131.988 43.7828Z" fill="#A13136"/>
<path d="M131.988 32.2453C131.988 32.2453 132.83 33.1362 133.142 35.4523C133.454 37.7691 133.142 39.5957 133.142 39.5957C133.142 39.5957 132.082 33.5375 131.988 32.2453Z" fill="#C64645"/>
<path d="M125.101 34.8296C125.101 34.8296 126.393 35.3864 128.018 35.565C129.645 35.7429 131.649 35.2309 131.649 35.2309C131.649 35.2309 130.903 33.2251 129.177 32.7586C126.459 32.0232 125.101 34.8296 125.101 34.8296Z" fill="#C64645"/>
<path d="M139.109 35.1577C139.109 35.1577 139.378 33.1021 142.006 32.6521C144.634 32.2016 147.753 34.9632 147.753 34.9632C147.753 34.9632 142.584 37.4291 139.109 35.1577Z" fill="#C64645"/>
<path d="M128.449 35.5433C126.697 35.5139 125.101 34.8297 125.101 34.8297L124.767 35.0524C124.549 35.1977 124.062 35.2604 124.062 35.2604C124.533 35.4659 125.021 35.4537 125.319 35.4172C125.926 35.7641 127 36.2364 128.375 36.255C130.558 36.2851 131.649 35.5279 131.649 35.5279V35.2303C131.649 35.2303 130.202 35.5721 128.449 35.5433Z" fill="#35181A"/>
<path d="M147.752 34.9628C147.752 34.9628 145.637 35.606 143.447 35.6656C141.255 35.7257 139.231 35.0813 139.231 35.0813L138.823 35.3353C138.558 35.5011 137.951 35.5926 137.951 35.5926C138.549 35.7865 139.158 35.7488 139.529 35.6937C140.303 36.0317 141.665 36.4784 143.385 36.4265C146.114 36.3453 146.955 35.6969 147.548 35.3078C147.632 35.2528 147.752 34.9628 147.752 34.9628Z" fill="#35181A"/>
<path d="M131.988 47.8219C131.988 47.8219 132.438 48.0292 134.237 48.3857C136.036 48.7422 140.315 47.8219 140.315 47.8219C140.315 47.8219 137.158 47.2875 136.152 47.3463C135.146 47.4059 134.463 47.9051 134.463 47.9051C134.463 47.9051 133.542 47.1684 132.978 47.1684C132.413 47.1684 131.374 47.4948 131.374 47.4948L131.988 47.8219Z" fill="#A13136"/>
<path d="M132.634 49.7265C132.634 49.7265 133.859 50.5578 135.641 50.6173C137.422 50.6769 139.353 49.9345 139.353 49.9345C139.353 49.9345 138.28 51.4737 135.993 51.7117C133.706 51.9492 132.634 49.7265 132.634 49.7265Z" fill="#C64645"/>
<path d="M110.761 163.739L118.43 147.322C118.43 147.322 123.529 152.697 139.11 153.241C154.69 153.786 175.698 145.882 175.698 145.882C175.698 145.882 181.079 159.771 181.079 164.94C181.079 170.109 150.338 190.513 150.338 190.513L132.111 189.152L110.761 163.739Z" fill="#772F36"/>
<path d="M109.888 190.512C109.888 190.512 104.852 192.472 103.126 193.276C103.126 193.276 95.6022 194.046 92.5821 194.937C89.5613 195.827 88.799 199.877 88.0586 204.25C87.3174 208.622 81.6835 214.489 79.9357 217.531C78.1878 220.575 79.0224 224.193 79.2637 224.942C79.505 225.691 78.5091 228.245 79.7622 229.825C81.016 231.405 81.7456 230.592 82.4464 230.2C83.1472 229.809 83.3603 228.417 83.3603 228.417C83.3603 228.417 85.3053 228.038 86.033 227.474C86.76 226.909 86.0138 226.901 87.8115 226.322C89.6093 225.743 90.5347 225.28 91.5376 224.543C92.5405 223.806 98.2141 213.959 101.829 210.809C105.445 207.66 111.955 206.555 111.955 206.555L109.888 190.512Z" fill="#DD5C55"/>
<path d="M208.464 208.195C196.181 211.292 169.507 213.47 145.6 214.886C120.97 216.345 99.2803 216.993 99.2803 216.993L95.6303 205.408L92.3926 195.137L163.984 180.943C163.984 180.943 162.035 166.121 177.632 158.136C177.632 158.136 224.06 158.504 235.308 171.561C246.551 184.619 234.401 201.669 208.464 208.195Z" fill="#772F36"/>
<path d="M138.575 204.122C138.575 204.122 143.611 206.082 145.337 206.886C145.337 206.886 152.86 207.657 155.881 208.547C158.901 209.438 159.663 213.486 160.404 217.86C161.145 222.232 166.779 228.099 168.527 231.142C170.274 234.186 169.44 237.803 169.198 238.552C168.957 239.301 169.954 241.854 168.7 243.435C167.447 245.016 166.716 244.201 166.016 243.81C165.315 243.42 165.102 242.028 165.102 242.028C165.102 242.028 163.157 241.649 162.429 241.084C161.703 240.519 162.449 240.512 160.651 239.932C158.853 239.353 157.928 238.89 156.925 238.153C155.922 237.417 150.248 227.568 146.633 224.419C143.017 221.27 136.508 220.166 136.508 220.166L138.575 204.122Z" fill="#DD5C55"/>
<path d="M114.698 160.859C114.698 160.859 53.4867 160.859 43.693 171.741C33.899 182.623 39.3402 196.497 47.2294 201.123C55.1194 205.747 137.823 224.247 137.823 224.247L142.176 198.946L129.974 195.137L136.508 186.389L114.698 160.859Z" fill="#772F36"/>
<path d="M114.518 163.216C114.518 163.216 127.291 179.03 134.235 183.729C134.235 183.729 119.959 182.26 114.518 163.216Z" fill="#5D2129"/>
<path d="M65.1855 176.91C65.1855 176.91 75.7955 178.27 92.3907 181.806C108.986 185.343 129.975 195.137 129.975 195.137C129.975 195.137 108.443 180.446 91.5753 176.91C74.7068 173.372 65.1855 176.91 65.1855 176.91Z" fill="#5D2129"/>
<path d="M124.376 191.567C124.376 191.567 173.734 176.837 194.41 173.472C194.41 173.472 150.692 186.613 129.975 195.137L124.376 191.567Z" fill="#5D2129"/>
<path d="M171.963 161.917C171.963 161.917 148.034 173.728 139.981 185.702C139.981 185.702 165.204 172.769 171.963 161.917Z" fill="#5D2129"/>
<path d="M45.6566 162.263C42.9618 163.214 39.8701 162.263 39.4738 161.788C39.0775 161.313 42.0898 158.538 42.0898 156.397C42.0898 156.063 42.0473 155.804 41.9783 155.597C42.421 156.061 43.0433 156.527 43.6686 156.794C45.3396 157.507 48.9858 157.899 49.9371 158.456C50.8886 159.014 48.3516 161.313 45.6566 162.263ZM109.4 140.705C109.4 140.705 105.336 130.817 95.8057 130.728L57.9637 156.401C57.2341 156.023 55.9548 155.497 53.9797 155.13C50.5711 154.495 43.8336 154.574 42.0898 154.257C41.2486 154.104 41.2018 154.524 41.5613 155.079C41.0061 154.849 40.1208 155.469 39.4378 156.477C38.3643 158.063 35.669 161.016 35.669 162.671C35.669 164.324 38.6021 165.988 40.3458 166.068C40.3458 166.068 34.4008 167.574 33.291 169.715C32.1813 171.854 35.1141 171.537 36.0656 171.062C37.0166 170.586 43.12 168.922 43.12 168.922C43.12 168.922 37.0958 172.252 36.9373 174.55C36.7788 176.849 38.8398 175.501 40.7421 174.55C42.6446 173.599 46.0528 171.854 46.0528 171.854C46.0528 171.854 41.1385 175.422 42.0103 177.007C42.8823 178.593 46.9248 174.972 50.1748 173.493C53.4249 172.013 55.8812 171.796 58.6236 170.73C62.461 169.239 64.4853 166.028 64.486 166.028C71.2482 163.511 100.224 152.244 109.4 140.705Z" fill="#DD5C55"/>
<path d="M234.039 108.172C234.039 108.172 237.485 118.695 235.127 126.537C232.769 134.379 223.746 136.147 223.746 136.147L225.197 134.334C225.197 134.334 234.084 132.838 234.583 120.641C235.026 109.805 234.039 108.172 234.039 108.172Z" fill="#35181A"/>
<path d="M50.4453 158.331C50.4453 158.331 53.4377 160.032 56.7702 160.032C60.1027 160.032 56.0905 161.528 53.6079 160.78C51.1254 160.032 50.4453 158.331 50.4453 158.331Z" fill="#C64645"/>
<path d="M60.9455 164.249C60.9455 164.249 58.9052 164.317 56.0489 165.813C53.1926 167.31 51.6963 171.118 50.9481 170.506C50.1995 169.894 52.2403 164.045 60.9455 164.249Z" fill="#C64645"/>
<path d="M41.2373 165.964C41.2373 165.964 47.4893 171.02 48.2375 171.088C48.9853 171.157 45.658 166.237 41.2373 165.964Z" fill="#C64645"/>
<path d="M118.138 111.713C118.138 111.713 121.223 110.097 130.626 110.097C140.03 110.097 155.681 113.77 155.681 113.77C155.681 113.77 126.806 113.918 118.138 111.713Z" fill="#FAB8A6"/>
<path d="M174.958 142.817L175.705 146.047V146.054L162.376 150.168C162.376 150.168 169.157 133.78 169.027 121.239C168.897 108.699 172.99 93.0934 172.99 93.0934L178.462 108.679C176.727 114.171 174.958 119.512 173.497 123.825C171.379 130.092 171.9 136.948 174.958 142.817Z" fill="#FAB8A6"/>
<path d="M233.054 172.127C230.583 170.691 228.519 167.96 229.557 167.59C230.596 167.219 234.251 167.513 236.025 167.123C236.689 166.977 237.387 166.634 237.909 166.262C237.803 166.451 237.712 166.699 237.65 167.027C237.252 169.13 239.696 172.416 239.218 172.81C238.74 173.203 235.525 173.562 233.054 172.127ZM243.818 181.748C243.125 179.439 237.565 176.853 237.565 176.853C239.293 177.1 242.484 176.01 242.792 174.385C243.099 172.76 241.001 169.356 240.241 167.598C239.757 166.481 239.003 165.707 238.415 165.83C238.871 165.352 238.903 164.931 238.048 164.924C236.276 164.912 229.671 163.58 226.204 163.569C224.806 163.564 223.728 163.699 222.933 163.86L197.583 128.213C196.181 119.5 194.247 97.4472 191.961 87.677C188.969 74.8904 182.304 71.3358 182.304 71.3358C182.304 71.3358 174.041 76.251 172.663 85.7723C171.285 95.2942 183.421 137.896 183.421 137.896C187.73 150.016 210.425 169.384 213.585 173.002C213.585 173.002 215.246 175.854 218.739 178.033C221.235 179.59 223.608 180.261 226.526 182.32C229.444 184.378 232.742 188.687 233.894 187.292C235.045 185.896 230.88 181.477 230.88 181.477C230.88 181.477 233.905 183.825 235.597 185.113C237.289 186.401 239.063 188.109 239.335 185.821C239.607 183.532 234.308 179.141 234.308 179.141C234.308 179.141 239.995 181.912 240.841 182.556C241.687 183.201 244.51 184.058 243.818 181.748Z" fill="#DD5C55"/>
<path d="M228.756 167.932C228.756 167.932 225.764 169.632 222.431 169.632C219.098 169.632 223.111 171.129 225.594 170.38C228.076 169.632 228.756 167.932 228.756 167.932Z" fill="#C64645"/>
<path d="M216.094 172.407C216.094 172.407 218.133 172.475 220.99 173.971C223.847 175.468 225.343 179.276 226.091 178.665C226.839 178.052 224.799 172.203 216.094 172.407Z" fill="#C64645"/>
<path d="M235.036 175.867C235.036 175.867 228.784 180.922 228.036 180.991C227.288 181.058 230.615 176.139 235.036 175.867Z" fill="#C64645"/>
<path d="M137.606 66.5583C137.606 66.5583 134.635 72.2146 139.353 73.7577C144.071 75.3001 152.152 69.9369 156.266 65.9701C156.266 65.9701 150.829 74.7126 142.014 76.1078C133.198 77.5042 135.243 68.4815 137.606 66.5583Z" fill="#FAB8A6"/>
</svg>
