<svg width="24" height="24" viewBox="0 0 24 24" fill="none" xmlns="http://www.w3.org/2000/svg">
<path d="M19.6311 4.4122C19.6311 3.52473 18.9065 2.80273 18.0158 2.80273C17.125 2.80273 16.4004 3.52473 16.4004 4.4122C16.4004 5.29966 17.125 6.02166 18.0158 6.02166C18.9065 6.02166 19.6311 5.29966 19.6311 4.4122ZM18.0158 4.89221C17.7501 4.89221 17.534 4.67688 17.534 4.4122C17.534 4.14751 17.7501 3.93218 18.0158 3.93218C18.2814 3.93218 18.4976 4.14751 18.4976 4.4122C18.4976 4.67688 18.2814 4.89221 18.0158 4.89221Z" fill="currentColor"/>
<path d="M23.4195 2.54035C23.314 2.24669 22.9895 2.09394 22.6948 2.19915L22.1014 2.41086C21.3519 0.980021 19.8468 0 18.1278 0C18.1159 0 18.1038 5.64723e-05 18.0918 0.000112945C16.4901 0.0132145 15.0075 0.88735 14.2229 2.28148C13.346 3.83899 12.3573 5.21443 11.2842 6.36946C8.12008 9.77491 3.59282 14.538 3.43667 14.7022L0.323804 17.8516C-0.0640571 18.2436 -0.108097 18.8285 0.216679 19.2739C0.541512 19.7193 1.11347 19.8584 1.60744 19.6119C3.61702 18.6112 5.9846 18.5245 8.1033 19.3741C9.15336 19.7951 10.2578 20.0303 11.3919 20.0762L12.5751 23.6137C12.6542 23.8503 12.8754 24 13.1127 24C13.1721 24 13.2326 23.9906 13.292 23.9709C13.589 23.8723 13.7495 23.5525 13.6505 23.2566L12.5797 20.0548C12.8808 20.0315 13.1793 19.9947 13.4744 19.9447L14.7015 23.6137C14.7807 23.8503 15.0019 24 15.2392 24C15.2986 24 15.359 23.9906 15.4184 23.9709C15.7154 23.8723 15.8759 23.5525 15.777 23.2565L14.584 19.6898C16.1707 19.2274 17.6261 18.3689 18.8291 17.163C20.7093 15.2785 21.7359 12.7858 21.7199 10.144C21.7141 9.26276 21.5923 8.39229 21.3572 7.55131C22.1742 6.704 22.6255 5.56902 22.6057 4.38406C22.6003 4.07058 22.5615 3.76512 22.4938 3.47045L23.0768 3.26241C23.3717 3.15725 23.525 2.83401 23.4195 2.54035ZM21.4725 4.40303C21.4887 5.38017 21.0762 6.31197 20.3404 6.95954C20.1722 7.10761 20.1076 7.34067 20.1755 7.55379C20.4425 8.39071 20.5807 9.26462 20.5865 10.151C20.6007 12.4896 19.6911 14.6971 18.0254 16.3668C17.597 16.7962 17.1325 17.1755 16.639 17.5027C16.3907 16.7313 16.2646 15.9273 16.2646 15.1042C16.2646 13.3707 16.8201 11.7274 17.8711 10.3521C18.0608 10.104 18.0126 9.74966 17.7636 9.56071C17.5144 9.37169 17.1588 9.41981 16.9692 9.66789C15.7667 11.2415 15.131 13.1214 15.131 15.1042C15.131 16.1267 15.3012 17.1239 15.6365 18.076C14.4555 18.6513 13.1522 18.9556 11.8033 18.9556C10.6705 18.9556 9.56797 18.7439 8.52653 18.3263C7.42405 17.8842 6.26222 17.6644 5.10618 17.6644C3.77652 17.6644 2.45463 17.9554 1.24094 18.5333L4.24816 15.4908C4.25071 15.4882 4.25326 15.4856 4.25581 15.483C4.30189 15.4344 8.90776 10.5897 12.1161 7.13669C13.2497 5.91655 14.2911 4.46894 15.2115 2.83395C15.7978 1.79237 16.905 1.13927 18.101 1.1295C19.3418 1.11956 20.4365 1.79339 21.0219 2.79606L20.8526 2.85648C20.5579 2.96163 20.4046 3.28494 20.5101 3.57854C20.593 3.80923 20.8111 3.95301 21.0437 3.95301C21.1071 3.95301 21.1717 3.94233 21.2348 3.9198L21.4164 3.85497C21.4496 4.03325 21.4692 4.21617 21.4725 4.40303Z" fill="currentColor"/>
<path d="M14.257 9.84055C14.2565 9.84055 14.256 9.84055 14.2556 9.84055C13.9432 9.84055 13.6896 10.0925 13.6888 10.4039C13.6888 10.4245 13.6885 10.4451 13.6883 10.4652C13.669 11.7154 13.167 12.897 12.2748 13.7923C11.3825 14.6875 10.2001 15.1958 8.94568 15.2234C8.43862 15.2344 7.94545 15.1702 7.47098 15.0315L12.2084 9.83406C12.4189 9.60314 12.4016 9.24601 12.1698 9.03633C11.9381 8.82665 11.5796 8.84381 11.3691 9.07473L6.07614 14.8817C5.95581 15.0138 5.90508 15.1947 5.93954 15.3699C5.97389 15.5449 6.08935 15.6936 6.25077 15.7707C7.06203 16.1581 7.92992 16.3541 8.83272 16.3541C8.87863 16.3541 8.92459 16.3536 8.97068 16.3525C10.52 16.3184 11.979 15.6918 13.0791 14.5881C14.1791 13.4844 14.798 12.0264 14.8217 10.482C14.8221 10.4568 14.8224 10.4317 14.8224 10.4066C14.8232 10.0947 14.57 9.84128 14.257 9.84055Z" fill="currentColor"/>
<path d="M18.7778 7.88672C18.5933 8.02322 18.4116 8.16863 18.2379 8.31896C18.0015 8.52345 17.9763 8.88013 18.1816 9.11562C18.2937 9.2442 18.4513 9.31005 18.6098 9.31005C18.7416 9.31005 18.8739 9.26453 18.9812 9.17169C19.1333 9.04011 19.2922 8.91288 19.4536 8.7935C19.7049 8.60759 19.7574 8.25385 19.5708 8.00345C19.3841 7.75311 19.0291 7.70082 18.7778 7.88672Z" fill="currentColor"/>
</svg>
