<svg width="24" height="24" viewBox="0 0 24 24" fill="none" xmlns="http://www.w3.org/2000/svg">
<path d="M21.8182 3.52941C20.6073 3.15882 19.2763 3 18 3C15.8727 3 13.5818 3.42353 12 4.58823C10.4182 3.42353 8.12727 3 6 3C3.87273 3 1.58182 3.42353 0 4.58823V20.1C0 20.3647 0.272726 20.6294 0.545453 20.6294C0.654544 20.6294 0.709091 20.5765 0.818182 20.5765C2.29091 19.8882 4.41817 19.4117 6 19.4117C8.12727 19.4117 10.4182 19.8353 12 21C13.4727 20.1 16.1454 19.4117 18 19.4117C19.8 19.4117 21.6545 19.7294 23.1818 20.5235C23.2909 20.5765 23.3455 20.5765 23.4545 20.5765C23.7273 20.5765 24 20.3118 24 20.047V4.58823C23.3455 4.11176 22.6364 3.79412 21.8182 3.52941ZM2.18182 17.8235V5.64706C3.38181 5.27647 4.69091 5.11765 6 5.11765C7.46181 5.11765 9.41453 5.55176 10.9091 6.1659V18.3424C9.41453 17.7282 7.46181 17.2941 6 17.2941C4.69091 17.2941 3.38181 17.4529 2.18182 17.8235ZM21.8182 17.8235C20.6182 17.4529 19.3091 17.2941 18 17.2941C16.5382 17.2941 14.5854 17.7282 13.0909 18.3424V6.1659C14.5854 5.54117 16.5382 5.11765 18 5.11765C19.3091 5.11765 20.6182 5.27647 21.8182 5.64706V17.8235Z" fill="currentColor"/>
<path d="M17.9993 9.3558C18.9593 9.3558 19.8866 9.4511 20.7266 9.63111V8.0217C19.8648 7.86288 18.9375 7.76758 17.9993 7.76758C16.603 7.76758 15.3157 7.93699 14.1812 8.26522V9.92758C15.2611 9.557 16.5594 9.3558 17.9993 9.3558Z" fill="currentColor"/>
<path d="M17.9993 12.1722C18.9593 12.1722 19.8866 12.2675 20.7266 12.4475V10.8381C19.8648 10.6793 18.9375 10.584 17.9993 10.584C16.603 10.584 15.3157 10.7534 14.1812 11.0816V12.744C15.2611 12.384 16.5594 12.1722 17.9993 12.1722Z" fill="currentColor"/>
<path d="M17.9993 14.9964C18.9593 14.9964 19.8866 15.0917 20.7266 15.2717V13.6623C19.8648 13.5035 18.9375 13.4082 17.9993 13.4082C16.603 13.4082 15.3157 13.5776 14.1812 13.9058V15.5682C15.2611 15.1976 16.5594 14.9964 17.9993 14.9964Z" fill="currentColor"/>
</svg>
