<svg width="24" height="24" viewBox="0 0 24 24" fill="none" xmlns="http://www.w3.org/2000/svg">
<g clip-path="url(#clip0_216_62)">
<path d="M10.3867 17.72C10.9067 18.24 11.7467 18.24 12.2667 17.72L17.0533 12.9333C17.5733 12.4133 17.5733 11.5733 17.0533 11.0533L12.2667 6.26667C11.7467 5.74667 10.9067 5.74667 10.3867 6.26667C9.86667 6.78667 9.86667 7.62667 10.3867 8.14667L12.8933 10.6667H1.33333C0.6 10.6667 0 11.2667 0 12C0 12.7333 0.6 13.3333 1.33333 13.3333H12.8933L10.3867 15.84C9.86667 16.36 9.88 17.2133 10.3867 17.72ZM21.3333 0H2.66667C1.18667 0 0 1.2 0 2.66667V6.66667C0 7.4 0.6 8 1.33333 8C2.06667 8 2.66667 7.4 2.66667 6.66667V4C2.66667 3.26667 3.26667 2.66667 4 2.66667H20C20.7333 2.66667 21.3333 3.26667 21.3333 4V20C21.3333 20.7333 20.7333 21.3333 20 21.3333H4C3.26667 21.3333 2.66667 20.7333 2.66667 20V17.3333C2.66667 16.6 2.06667 16 1.33333 16C0.6 16 0 16.6 0 17.3333V21.3333C0 22.8 1.2 24 2.66667 24H21.3333C22.8 24 24 22.8 24 21.3333V2.66667C24 1.2 22.8 0 21.3333 0Z" fill="currentColor"/>
</g>
<defs>
<clipPath id="clip0_216_62">
<rect width="24" height="24" fill="white"/>
</clipPath>
</defs>
</svg>
