<svg width="24" height="24" viewBox="0 0 24 24" fill="none" xmlns="http://www.w3.org/2000/svg">
<path d="M14.0426 23.4797C13.9025 23.2994 13.8161 23.0836 13.7932 22.8569C13.7702 22.6302 13.8117 22.4017 13.9129 22.1972C14.1784 21.6842 14.2825 21.0978 14.2146 20.5203C14.159 20.1082 14.0221 19.7112 13.8118 19.3518C13.6042 18.9972 13.3266 18.688 12.9957 18.4428C11.8677 17.6 11.0763 16.3874 10.7614 15.02C8.18473 18.3783 9.17287 20.2848 10.4069 21.9647C10.5516 22.1617 10.6278 22.4001 10.624 22.644C10.6202 22.8878 10.5366 23.1238 10.3858 23.3162C10.2321 23.5108 10.026 23.6581 9.79139 23.7407C9.55951 23.8216 9.30892 23.8336 9.07028 23.7752C7.40328 23.3702 5.83433 22.5992 4.77076 21.3707C4.16788 20.6884 3.70372 19.8963 3.40397 19.0383C3.1008 18.173 2.96615 17.2583 3.00721 16.3429C3.00721 16.3429 2.80656 12.6485 7.28711 9.02915C7.28711 9.02915 12.5823 4.56229 10.7448 1.2594C10.6771 1.09693 10.6571 0.918725 10.687 0.745393C10.7169 0.57206 10.7955 0.410685 10.9138 0.279934C11.0288 0.151737 11.1806 0.0618145 11.3488 0.0223696C11.5169 -0.0170754 11.6932 -0.00413287 11.8537 0.0594407L12.0739 0.146438C14.0684 1.39996 15.6273 3.23263 16.5394 5.39627C17.4144 7.5157 17.4083 9.98612 16.817 12.1865C17.3073 11.7486 17.7161 11.2251 18.0254 10.6371L18.0691 10.5411C18.3678 9.82562 19.3077 10.0536 19.6607 10.5216C19.7904 10.7271 23.1184 15.5359 21.3307 19.5933C20.6771 20.8226 19.7224 21.8683 18.5549 22.6337C17.5752 23.2801 16.4805 23.7347 15.3295 23.9732C15.0916 24.023 14.8442 24.0032 14.6174 23.9162C14.3886 23.8277 14.1894 23.6769 14.0426 23.4812V23.4797ZM11.3784 11.8386C11.5193 11.7656 11.6825 11.7476 11.836 11.7881C11.9895 11.8286 12.1223 11.9247 12.2082 12.0575C12.2685 12.146 12.3077 12.2465 12.3213 12.3545L12.3892 12.878C12.4194 13.6445 12.4103 14.4455 12.7105 15.1819C13.0213 15.9379 13.5041 16.6069 14.1166 17.1289C14.9056 17.6451 15.5164 18.3896 15.8665 19.2618C16.1984 20.1078 16.2437 21.0468 15.9933 21.9212C16.7594 21.6809 17.4715 21.2953 18.0902 20.7858L18.2456 20.6598C18.7525 20.2443 19.1704 19.7253 19.4721 19.1343C19.7753 18.5448 19.9579 17.8969 20.0061 17.2309C20.1042 15.6934 19.5777 14.15 18.7585 12.773C18.3844 13.313 17.8685 13.7315 17.2726 13.979C16.8999 14.1365 16.5047 14.234 16.1019 14.264C15.8712 14.2787 15.6411 14.2266 15.4396 14.114C15.235 13.9984 15.0672 13.8279 14.9553 13.622C14.8628 13.456 14.8099 13.271 14.8007 13.0814C14.7916 12.8918 14.8264 12.7026 14.9025 12.5285C15.5241 11.0706 15.7172 9.45364 15.4532 7.88319C15.1407 6.08645 14.2752 4.43037 12.9761 3.14334C12.7407 6.45073 9.32976 9.53013 8.62977 10.1931C8.52127 10.2948 8.40852 10.3918 8.29184 10.4841C4.63197 13.4315 4.8824 16.1164 4.8824 16.2349C4.80972 17.3015 5.05029 18.3661 5.57485 19.2993C6.12549 20.2668 6.91751 21.0648 7.86793 21.6092C6.77117 19.2123 6.77117 16.3354 10.8188 12.2105L11.38 11.8356L11.3784 11.8386Z" fill="currentColor"/>
</svg>
