<svg width="23" height="24" viewBox="0 0 23 24" fill="none" xmlns="http://www.w3.org/2000/svg">
<path d="M14.6308 15.0908C16.6325 15.0908 18.5182 14.2992 19.9451 12.8672C21.3821 11.4303 22.1687 9.52943 22.1687 7.51766C22.1687 3.37312 18.7855 0 14.6258 0C13.1434 0 11.7115 0.423531 10.4813 1.22017C9.38713 1.9311 8.49974 2.91429 7.89974 4.07395C7.38545 3.91765 6.85604 3.84202 6.25604 3.84202C4.74847 3.84202 3.33671 4.41681 2.27284 5.4706C1.20393 6.52942 0.614014 7.94623 0.614014 9.46388C0.614014 12.5698 3.14511 15.0908 6.25604 15.0908H14.6308ZM1.62242 9.46892C1.62242 6.9227 3.69973 4.85043 6.25604 4.85043C6.89638 4.85043 7.44091 4.95127 7.96528 5.17312C8.21739 5.279 8.50982 5.16303 8.62075 4.91093C9.66445 2.54118 12.0241 1.01345 14.6308 1.01345C18.2359 1.01345 21.1653 3.93278 21.1653 7.5227C21.1653 11.1429 18.2359 14.0874 14.6308 14.0874H6.25604C3.69973 14.0874 1.62242 12.0151 1.62242 9.46892Z" fill="currentColor"/>
<path d="M6.51374 17.41L5.27844 18.6907C5.08684 18.8873 5.09189 19.21 5.29357 19.4016C5.38937 19.4974 5.51542 19.5428 5.64147 19.5428C5.77256 19.5428 5.90365 19.4924 6.00449 19.3865L7.23979 18.1058C7.43138 17.9092 7.42634 17.5865 7.22466 17.3949C7.02802 17.2033 6.70533 17.2083 6.51374 17.41Z" fill="currentColor"/>
<path d="M11.6507 17.41L10.4154 18.6907C10.2238 18.8873 10.2288 19.21 10.4305 19.4016C10.5263 19.4974 10.6524 19.5428 10.7784 19.5428C10.9095 19.5428 11.0406 19.4924 11.1415 19.3865L12.3768 18.1058C12.5683 17.9092 12.5633 17.5865 12.3616 17.3949C12.165 17.2033 11.8423 17.2083 11.6507 17.41Z" fill="currentColor"/>
<path d="M16.7894 17.41L15.5541 18.6907C15.3625 18.8873 15.3675 19.21 15.5692 19.4016C15.665 19.4974 15.7911 19.5428 15.9171 19.5428C16.0482 19.5428 16.1793 19.4924 16.2801 19.3865L17.5154 18.1058C17.707 17.9092 17.702 17.5865 17.5003 17.3949C17.3037 17.2033 16.981 17.2083 16.7894 17.41Z" fill="currentColor"/>
<path d="M22.6329 17.3949C22.4362 17.2033 22.1135 17.2083 21.9219 17.41L20.6866 18.6907C20.495 18.8873 20.5001 19.21 20.7018 19.4016C20.7976 19.4974 20.9236 19.5428 21.0497 19.5428C21.1858 19.5428 21.3169 19.4924 21.4127 19.3865L22.648 18.1058C22.8396 17.9092 22.8345 17.5865 22.6329 17.3949Z" fill="currentColor"/>
<path d="M1.37531 17.41L0.140013 18.6907C-0.0515838 18.8873 -0.0465417 19.21 0.155139 19.4016C0.250938 19.4974 0.376988 19.5428 0.503039 19.5428C0.634131 19.5428 0.765224 19.4924 0.866064 19.3865L2.10136 18.1058C2.29296 17.9092 2.28791 17.5865 2.08623 17.3949C1.8896 17.2033 1.56691 17.2083 1.37531 17.41Z" fill="currentColor"/>
<path d="M9.08468 21.9121L7.84938 23.1424C7.65274 23.339 7.65274 23.6567 7.84938 23.8533C7.95022 23.9491 8.07627 23.9995 8.20737 23.9995C8.33846 23.9995 8.46451 23.9491 8.56031 23.8533L9.7956 22.6231C9.99224 22.4264 9.99224 22.1088 9.7956 21.9121C9.59897 21.7155 9.28132 21.7155 9.08468 21.9121Z" fill="currentColor"/>
<path d="M14.2226 21.9121L12.9873 23.1424C12.7907 23.339 12.7907 23.6567 12.9873 23.8533C13.0882 23.9491 13.2142 23.9995 13.3453 23.9995C13.4764 23.9995 13.6025 23.9491 13.6982 23.8533L14.9335 22.6231C15.1302 22.4264 15.1302 22.1088 14.9335 21.9121C14.7369 21.7155 14.4193 21.7155 14.2226 21.9121Z" fill="currentColor"/>
<path d="M19.3606 21.9121L18.1253 23.1424C17.9286 23.339 17.9286 23.6567 18.1253 23.8533C18.2261 23.9491 18.3522 23.9995 18.4832 23.9995C18.6143 23.9995 18.7404 23.9491 18.8362 23.8533L20.0715 22.6231C20.2681 22.4264 20.2681 22.1088 20.0715 21.9121C19.8748 21.7155 19.5572 21.7155 19.3606 21.9121Z" fill="currentColor"/>
<path d="M3.94698 21.9121L2.71169 23.1424C2.51505 23.339 2.51505 23.6567 2.71169 23.8533C2.81253 23.9491 2.93858 23.9995 3.06967 23.9995C3.20076 23.9995 3.33186 23.9491 3.42261 23.8533L4.65791 22.6231C4.85455 22.4264 4.85455 22.1088 4.65791 21.9121C4.46127 21.7155 4.14362 21.7155 3.94698 21.9121Z" fill="currentColor"/>
</svg>
