<svg width="24" height="19" viewBox="0 0 24 19" fill="none" xmlns="http://www.w3.org/2000/svg">
<path d="M23.5219 9.75295H17.4623C18.0757 8.75152 18.4064 7.59248 18.4064 6.40636C18.4064 2.87386 15.5325 0 12 0C8.4675 0 5.59364 2.87386 5.59364 6.40636C5.59364 7.59248 5.92434 8.75152 6.53766 9.75295H0.478078C0.214031 9.75295 0 9.96698 0 10.231C0 10.4951 0.214031 10.7091 0.478078 10.7091H23.5219C23.7859 10.7091 24 10.4951 24 10.231C24 9.96698 23.7859 9.75295 23.5219 9.75295ZM16.3014 9.75295H7.69856C6.95625 8.79952 6.5498 7.61958 6.5498 6.40636C6.5498 3.40111 8.99475 0.956156 12 0.956156C15.0052 0.956156 17.4502 3.40111 17.4502 6.40636C17.4502 7.61958 17.0438 8.79947 16.3014 9.75295Z" fill="currentColor"/>
<path d="M16.3031 11.6152H8.00933C7.74528 11.6152 7.53125 11.8293 7.53125 12.0933C7.53125 12.3574 7.74528 12.5714 8.00933 12.5714H16.3031C16.5671 12.5714 16.7811 12.3574 16.7811 12.0933C16.7811 11.8293 16.5671 11.6152 16.3031 11.6152Z" fill="currentColor"/>
<path d="M14.2001 13.1943H10.1136C9.84953 13.1943 9.6355 13.4084 9.6355 13.6724C9.6355 13.9365 9.84953 14.1505 10.1136 14.1505H14.2001C14.4641 14.1505 14.6782 13.9365 14.6782 13.6724C14.6783 13.4084 14.4641 13.1943 14.2001 13.1943Z" fill="currentColor"/>
<path d="M12.7654 14.7236H11.5474C11.2834 14.7236 11.0693 14.9377 11.0693 15.2017C11.0693 15.4658 11.2834 15.6798 11.5474 15.6798H12.7654C13.0294 15.6798 13.2435 15.4658 13.2435 15.2017C13.2435 14.9377 13.0294 14.7236 12.7654 14.7236Z" fill="currentColor"/>
<path d="M22.1356 11.6152H21.5862C21.3222 11.6152 21.1082 11.8293 21.1082 12.0933C21.1082 12.3574 21.3222 12.5714 21.5862 12.5714H22.1356C22.3996 12.5714 22.6136 12.3574 22.6136 12.0933C22.6136 11.8293 22.3996 11.6152 22.1356 11.6152Z" fill="currentColor"/>
<path d="M19.8745 11.6152H18.3111C18.0471 11.6152 17.833 11.8293 17.833 12.0933C17.833 12.3574 18.0471 12.5714 18.3111 12.5714H19.8745C20.1385 12.5714 20.3525 12.3574 20.3525 12.0933C20.3525 11.8293 20.1385 11.6152 19.8745 11.6152Z" fill="currentColor"/>
<path d="M3.56256 13.7666H3.01323C2.74919 13.7666 2.53516 13.9806 2.53516 14.2447C2.53516 14.5087 2.74919 14.7228 3.01323 14.7228H3.56256C3.82661 14.7228 4.04064 14.5087 4.04064 14.2447C4.04064 13.9806 3.82661 13.7666 3.56256 13.7666Z" fill="currentColor"/>
<path d="M6.83833 13.7666H5.27495C5.01091 13.7666 4.79688 13.9806 4.79688 14.2447C4.79688 14.5087 5.01091 14.7228 5.27495 14.7228H6.83833C7.10237 14.7228 7.31641 14.5087 7.31641 14.2447C7.31641 13.9806 7.10237 13.7666 6.83833 13.7666Z" fill="currentColor"/>
<path d="M19.9374 15.5371C19.1992 15.5371 18.5987 16.1376 18.5987 16.8758C18.5987 17.0867 18.4272 17.2582 18.2163 17.2582C18.0054 17.2582 17.8338 17.0867 17.8338 16.8758C17.8338 16.1376 17.2333 15.5371 16.4951 15.5371C15.757 15.5371 15.1565 16.1376 15.1565 16.8758C15.1565 17.1398 15.3706 17.3538 15.6346 17.3538C15.8986 17.3538 16.1127 17.1398 16.1127 16.8758C16.1127 16.6649 16.2843 16.4933 16.4951 16.4933C16.706 16.4933 16.8776 16.6649 16.8776 16.8758C16.8776 17.6139 17.4781 18.2144 18.2162 18.2144C18.9544 18.2144 19.5549 17.6139 19.5549 16.8758C19.5549 16.6649 19.7265 16.4933 19.9373 16.4933C20.1482 16.4933 20.3198 16.6649 20.3198 16.8758C20.3198 17.1398 20.5339 17.3538 20.7979 17.3538C21.0619 17.3538 21.2759 17.1398 21.2759 16.8758C21.276 16.1376 20.6755 15.5371 19.9374 15.5371Z" fill="currentColor"/>
<path d="M8.46094 17.1164C8.19689 17.1164 7.98286 17.3305 7.98286 17.5945C7.98286 17.8054 7.81125 17.977 7.60041 17.977C7.38952 17.977 7.21795 17.8054 7.21795 17.5945C7.21795 16.8564 6.61744 16.2559 5.8793 16.2559C5.14116 16.2559 4.54064 16.8564 4.54064 17.5945C4.54064 17.8054 4.36903 17.977 4.15819 17.977C3.9473 17.977 3.77574 17.8054 3.77574 17.5945C3.77574 17.3305 3.56171 17.1164 3.29766 17.1164C3.03361 17.1164 2.81958 17.3305 2.81958 17.5945C2.81958 18.3327 3.4201 18.9332 4.15824 18.9332C4.89638 18.9332 5.49689 18.3327 5.49689 17.5945C5.49689 17.3836 5.6685 17.2121 5.87935 17.2121C6.09024 17.2121 6.2618 17.3836 6.2618 17.5945C6.2618 18.3327 6.86231 18.9332 7.60045 18.9332C8.3386 18.9332 8.93911 18.3327 8.93911 17.5945C8.93902 17.3305 8.72499 17.1164 8.46094 17.1164Z" fill="currentColor"/>
<path d="M9.94406 2.88195C9.78633 2.67022 9.4868 2.62643 9.27506 2.78417C8.1232 3.64231 7.43555 5.01111 7.43555 6.44576C7.43555 6.70981 7.64958 6.92384 7.91362 6.92384C8.17767 6.92384 8.3917 6.70981 8.3917 6.44576C8.3917 5.2947 8.92186 4.23964 9.84628 3.55095C10.058 3.39322 10.1018 3.09368 9.94406 2.88195Z" fill="currentColor"/>
</svg>
