<svg width="23" height="24" viewBox="0 0 23 24" fill="none" xmlns="http://www.w3.org/2000/svg">
<path d="M7.01112 20.1001C7.01112 21.8184 5.6182 23.2113 3.89995 23.2113C2.1817 23.2113 0.788782 21.8184 0.788782 20.1001C0.788782 18.3819 2.1817 16.989 3.89995 16.989C5.6182 16.989 7.01112 18.3819 7.01112 20.1001Z" stroke="currentColor" stroke-width="1.57756"/>
<path d="M22.0104 16.4996C22.0104 18.2178 20.6175 19.6107 18.8992 19.6107C17.181 19.6107 15.788 18.2178 15.788 16.4996C15.788 14.7813 17.181 13.3884 18.8992 13.3884C20.6175 13.3884 22.0104 14.7813 22.0104 16.4996Z" stroke="currentColor" stroke-width="1.57756"/>
<line x1="7.01127" y1="20.3994" x2="7.01127" y2="4.19961" stroke="currentColor" stroke-width="1.57756"/>
<line x1="21.8115" y1="0.759662" x2="6.8117" y2="4.95248" stroke="currentColor" stroke-width="1.57756"/>
<line x1="22.4517" y1="6.16034" x2="6.8039" y2="10.3532" stroke="currentColor" stroke-width="1.57756"/>
<line x1="22.0105" y1="16.2002" x2="22.0105" y2="0.000392948" stroke="currentColor" stroke-width="1.57756"/>
</svg>
