<svg width="24" height="24" viewBox="0 0 24 24" fill="none" xmlns="http://www.w3.org/2000/svg">
<path d="M14.5749 0H10.0035C9.37489 0 8.86061 0.514286 8.86061 1.14286C8.86061 1.77143 9.37489 2.28571 10.0035 2.28571H14.5749C15.2035 2.28571 15.7177 1.77143 15.7177 1.14286C15.7177 0.514286 15.2035 0 14.5749 0ZM12.2892 14.8571C12.9177 14.8571 13.432 14.3429 13.432 13.7143V9.14286C13.432 8.51429 12.9177 8 12.2892 8C11.6606 8 11.1463 8.51429 11.1463 9.14286V13.7143C11.1463 14.3429 11.6606 14.8571 12.2892 14.8571ZM20.3235 7.30286L21.1806 6.44571C21.6149 6.01143 21.6263 5.29143 21.1806 4.84571L21.1692 4.83429C20.7235 4.38857 20.0149 4.4 19.5692 4.83429L18.712 5.69143C16.9406 4.27429 14.712 3.42857 12.2892 3.42857C6.80346 3.42857 2.14061 7.95429 2.00346 13.44C1.85489 19.2457 6.50632 24 12.2892 24C17.9806 24 22.5749 19.3943 22.5749 13.7143C22.5749 11.2914 21.7292 9.06286 20.3235 7.30286ZM12.2892 21.7143C7.86632 21.7143 4.28918 18.1371 4.28918 13.7143C4.28918 9.29143 7.86632 5.71429 12.2892 5.71429C16.712 5.71429 20.2892 9.29143 20.2892 13.7143C20.2892 18.1371 16.712 21.7143 12.2892 21.7143Z" fill="currentColor"/>
</svg>
