<svg width="20" height="24" viewBox="0 0 20 24" fill="none" xmlns="http://www.w3.org/2000/svg">
<path d="M1 11.2222H19M6.14286 20.1667L2.28571 24M13.8571 20.1667L17.7143 24M10 11.2222V2.27778M4.85714 16.3333H4.87M15.1429 16.3333H15.1557M5.11429 20.1667H14.8857C16.3258 20.1667 17.046 20.1667 17.596 19.8881C18.0798 19.6432 18.4732 19.2522 18.7197 18.7713C19 18.2247 19 17.509 19 16.0778V5.08889C19 3.65765 19 2.94202 18.7197 2.39536C18.4732 1.91449 18.0798 1.52354 17.596 1.27854C17.046 1 16.3258 1 14.8857 1H5.11429C3.67416 1 2.95408 1 2.40403 1.27854C1.92017 1.52354 1.5268 1.91449 1.28027 2.39536C1 2.94202 1 3.65764 1 5.08889V16.0778C1 17.509 1 18.2247 1.28027 18.7713C1.5268 19.2522 1.92017 19.6432 2.40403 19.8881C2.95408 20.1667 3.67414 20.1667 5.11429 20.1667Z" stroke="currentColor" stroke-width="1.5" stroke-linecap="round" stroke-linejoin="round"/>
</svg>
