<svg width="24" height="20" viewBox="0 0 24 20" fill="none" xmlns="http://www.w3.org/2000/svg">
<path d="M16.3996 0H7.79452C7.53053 0 7.31647 0.219238 7.31647 0.48971V13.6715C7.19525 13.6344 7.06692 13.6142 6.93404 13.6142C6.19594 13.6142 5.59546 14.2293 5.59546 14.9854C5.59546 15.2559 5.80952 15.4751 6.07351 15.4751C6.33749 15.4751 6.55156 15.2559 6.55156 14.9854C6.55156 14.7694 6.72316 14.5936 6.93399 14.5936C7.14487 14.5936 7.31642 14.7694 7.31642 14.9854C7.31642 15.2559 7.53048 15.4751 7.79447 15.4751H8.894C9.15798 15.4751 9.37205 15.2559 9.37205 14.9854C9.37205 14.7694 9.5436 14.5936 9.75448 14.5936C9.96536 14.5936 10.1369 14.7694 10.1369 14.9854C10.1369 15.7415 10.7374 16.3566 11.4755 16.3566C12.2136 16.3566 12.8141 15.7415 12.8141 14.9854C12.8141 14.7694 12.9856 14.5936 13.1965 14.5936C13.4074 14.5936 13.5789 14.7694 13.5789 14.9854C13.5789 15.7415 14.1794 16.3567 14.9175 16.3567H16.3995C16.6635 16.3567 16.8776 16.1374 16.8776 15.8669V0.48971C16.8776 0.219238 16.6636 0 16.3996 0ZM15.9215 15.3772H14.9176C14.7067 15.3772 14.5352 15.2015 14.5352 14.9854C14.5352 14.2293 13.9347 13.6142 13.1966 13.6142C12.4585 13.6142 11.858 14.2293 11.858 14.9854C11.858 15.2015 11.6864 15.3772 11.4756 15.3772C11.2647 15.3772 11.0931 15.2015 11.0931 14.9854C11.0931 14.2293 10.4927 13.6142 9.75457 13.6142C9.18484 13.6142 8.69709 13.9808 8.50426 14.4957H8.27257V0.97942H10.7585V10.3331C10.7585 10.6035 10.9725 10.8228 11.2365 10.8228C11.5005 10.8228 11.7146 10.6035 11.7146 10.3331V0.97942H14.2483V10.3331C14.2483 10.6035 14.4624 10.8228 14.7264 10.8228C14.9903 10.8228 15.2044 10.6035 15.2044 10.3331V0.97942H15.9215V15.3772Z" fill="currentColor"/>
<path d="M10.4706 16.7966C10.2066 16.7966 9.99256 17.0158 9.99256 17.2863C9.99256 17.5023 9.82101 17.678 9.61013 17.678C9.39926 17.678 9.2277 17.5022 9.2277 17.2863C9.2277 16.5302 8.62722 15.915 7.88913 15.915C7.15103 15.915 6.55055 16.5302 6.55055 17.2863C6.55055 17.5023 6.379 17.678 6.16812 17.678C5.95724 17.678 5.78569 17.5022 5.78569 17.2863C5.78569 17.0158 5.57162 16.7966 5.30764 16.7966C5.04366 16.7966 4.82959 17.0158 4.82959 17.2863C4.82959 18.0424 5.43007 18.6575 6.16817 18.6575C6.90626 18.6575 7.50674 18.0424 7.50674 17.2863C7.50674 17.0702 7.6783 16.8945 7.88917 16.8945C8.10005 16.8945 8.2716 17.0702 8.2716 17.2863C8.2716 18.0424 8.87208 18.6575 9.61018 18.6575C10.3483 18.6575 10.9488 18.0424 10.9488 17.2863C10.9487 17.0158 10.7346 16.7966 10.4706 16.7966Z" fill="currentColor"/>
<path d="M19.0268 17.6774C18.7628 17.6774 18.5487 17.8967 18.5487 18.1671C18.5487 18.3831 18.3771 18.5589 18.1663 18.5589C17.9554 18.5589 17.7839 18.3831 17.7839 18.1671C17.7839 17.411 17.1834 16.7959 16.4453 16.7959C15.7072 16.7959 15.1067 17.411 15.1067 18.1671C15.1067 18.3831 14.9351 18.5589 14.7243 18.5589C14.5134 18.5589 14.3418 18.3831 14.3418 18.1671C14.3418 17.8967 14.1278 17.6774 13.8638 17.6774C13.5998 17.6774 13.3857 17.8967 13.3857 18.1671C13.3857 18.9232 13.9862 19.5383 14.7243 19.5383C15.4624 19.5383 16.0629 18.9232 16.0629 18.1671C16.0629 17.9511 16.2344 17.7754 16.4453 17.7754C16.6562 17.7754 16.8278 17.9511 16.8278 18.1671C16.8278 18.9232 17.4282 19.5383 18.1663 19.5383C18.9044 19.5383 19.5049 18.9232 19.5049 18.1671C19.5049 17.8967 19.2908 17.6774 19.0268 17.6774Z" fill="currentColor"/>
<path d="M6.16743 0H5.35476C5.09077 0 4.87671 0.219238 4.87671 0.48971C4.87671 0.760181 5.09077 0.97942 5.35476 0.97942H6.16743C6.43141 0.97942 6.64548 0.760181 6.64548 0.48971C6.64548 0.219238 6.43141 0 6.16743 0Z" fill="currentColor"/>
<path d="M3.58544 0H0.47805C0.214065 0 0 0.219238 0 0.48971C0 0.760181 0.214065 0.97942 0.47805 0.97942H3.58544C3.84943 0.97942 4.06349 0.760181 4.06349 0.48971C4.06349 0.219238 3.84943 0 3.58544 0Z" fill="currentColor"/>
<path d="M9.46609 1.27051C9.2021 1.27051 8.98804 1.48975 8.98804 1.76022V7.53893C8.98804 7.8094 9.2021 8.02864 9.46609 8.02864C9.73007 8.02864 9.94414 7.8094 9.94414 7.53893V1.76022C9.94414 1.48979 9.73007 1.27051 9.46609 1.27051Z" fill="currentColor"/>
<path d="M13.0044 1.27051C12.7404 1.27051 12.5264 1.48975 12.5264 1.76022V7.53893C12.5264 7.8094 12.7404 8.02864 13.0044 8.02864C13.2684 8.02864 13.4825 7.8094 13.4825 7.53893V1.76022C13.4825 1.48979 13.2684 1.27051 13.0044 1.27051Z" fill="currentColor"/>
<path d="M9.46658 8.91309C9.20259 8.91309 8.98853 9.13232 8.98853 9.4028V12.4391C8.98853 12.7095 9.20259 12.9288 9.46658 12.9288C9.73056 12.9288 9.94463 12.7095 9.94463 12.4391V9.4028C9.94463 9.13237 9.73056 8.91309 9.46658 8.91309Z" fill="currentColor"/>
<path d="M13.0032 8.91309C12.7392 8.91309 12.5251 9.13232 12.5251 9.4028V12.4391C12.5251 12.7095 12.7392 12.9288 13.0032 12.9288C13.2672 12.9288 13.4812 12.7095 13.4812 12.4391V9.4028C13.4813 9.13237 13.2672 8.91309 13.0032 8.91309Z" fill="currentColor"/>
<path d="M23.522 0H18.2156C17.9516 0 17.7375 0.219238 17.7375 0.48971C17.7375 0.760181 17.9516 0.97942 18.2156 0.97942H23.522C23.786 0.97942 24.0001 0.760181 24.0001 0.48971C24.0001 0.219238 23.786 0 23.522 0Z" fill="currentColor"/>
<path d="M14.7263 11.6543C14.4624 11.6543 14.2483 11.8735 14.2483 12.144V12.9276C14.2483 13.198 14.4624 13.4173 14.7263 13.4173C14.9903 13.4173 15.2044 13.198 15.2044 12.9276V12.144C15.2044 11.8735 14.9903 11.6543 14.7263 11.6543Z" fill="currentColor"/>
<path d="M11.2342 11.6543C10.9702 11.6543 10.7561 11.8735 10.7561 12.144V12.9276C10.7561 13.198 10.9702 13.4173 11.2342 13.4173C11.4981 13.4173 11.7122 13.198 11.7122 12.9276V12.144C11.7122 11.8735 11.4981 11.6543 11.2342 11.6543Z" fill="currentColor"/>
<path d="M17.7857 13.6113C17.5217 13.6113 17.3076 13.8306 17.3076 14.101C17.3076 14.3715 17.5217 14.5907 17.7857 14.5907C17.9965 14.5907 18.1681 14.7665 18.1681 14.9825C18.1681 15.253 18.3822 15.4722 18.6461 15.4722C18.9101 15.4722 19.1242 15.253 19.1242 14.9825C19.1242 14.2265 18.5238 13.6113 17.7857 13.6113Z" fill="currentColor"/>
</svg>
