<svg width="24" height="24" viewBox="0 0 24 24" fill="none" xmlns="http://www.w3.org/2000/svg">
<g clip-path="url(#clip0_132_706)">
<path d="M12.0001 7.89682C14.1403 7.89682 15.9485 6.01852 15.9485 3.79516C15.9485 1.66707 14.2141 0 12.0001 0C9.78615 0 8.05176 1.66707 8.05176 3.79516C8.05176 6.01852 9.85992 7.89682 12.0001 7.89682ZM12.0001 1.54845C13.3684 1.54845 14.4001 2.51434 14.4001 3.79516C14.4001 5.15532 13.2786 6.34845 12.0001 6.34845C10.7217 6.34845 9.60013 5.15532 9.60013 3.79516C9.60013 2.51434 10.6319 1.54845 12.0001 1.54845Z" fill="currentColor"/>
<path d="M20.8866 23.2386C22.6033 23.2386 24 21.8418 24 20.125C24 19.4129 23.7109 18.7604 23.3166 18.1797C22.6549 17.206 19.6465 11.799 18.1156 10.1239C16.8062 8.69125 13.7511 8.04688 12 8.04688C10.2489 8.04688 7.19386 8.69125 5.88446 10.1239C4.35354 11.799 1.34513 17.206 0.683557 18.1797C0.28905 18.7603 0 19.4128 0 20.125C0 21.8418 1.39677 23.2384 3.11347 23.2384L20.8866 23.2386ZM16.9726 11.1683C17.9364 12.223 19.67 15.0361 20.8429 17.0121C20.7289 17.0137 20.6147 17.0213 20.5004 17.0355L18.4554 17.2911L16.3183 13.4153C16.1733 13.1524 15.8686 13.0211 15.578 13.0958C15.2872 13.1706 15.084 13.4328 15.084 13.733V17.7125L13.591 17.8991L8.91629 17.4988V17.1457L15.7741 10.3945C16.2775 10.6142 16.7036 10.874 16.9726 11.1683ZM17.0492 17.4669L16.3999 17.5481V16.2894L17.0492 17.4669ZM7.60001 17.3861L7.02255 17.3367L7.60001 16.2894V17.3861ZM7.02749 11.1683C7.91833 10.1936 10.5241 9.59517 12 9.59517C12.6971 9.59517 13.6461 9.72881 14.5475 9.97237L8.91622 15.5161V13.7331C8.91622 13.4329 8.71298 13.1707 8.42223 13.0959C8.13141 13.0213 7.82685 13.1526 7.68195 13.4154L5.58749 17.2138L3.48365 17.0336C3.37478 17.0205 3.26585 17.0134 3.15734 17.0118C4.32995 15.0361 6.06328 12.2233 7.02749 11.1683ZM1.93196 19.1226C2.1832 18.8276 2.84341 18.5511 3.22222 18.5673C5.79741 18.6771 13.4949 19.445 13.4949 19.445L13.9863 21.6901H3.11347C2.25043 21.6901 1.54837 20.988 1.54837 20.125C1.54837 19.8234 1.74384 19.3436 1.93196 19.1226ZM22.069 19.1241C22.2561 19.3444 22.4517 19.8246 22.4517 20.125C22.4517 20.988 21.7496 21.6901 20.8866 21.6901H15.5713L15.0434 19.2781L20.6924 18.572C21.1439 18.5157 21.7741 18.7771 22.069 19.1241Z" fill="currentColor"/>
</g>
<defs>
<clipPath id="clip0_132_706">
<rect width="24" height="24" fill="white"/>
</clipPath>
</defs>
</svg>
